<?xml version="1.0" encoding="UTF-8"?>
<svg width="132px" height="27px" viewBox="0 0 132 27" version="1.1" xmlns="http://www.w3.org/2000/svg" xmlns:xlink="http://www.w3.org/1999/xlink">
    <title>Rectangle 9 Copy 8</title>
    <g id="Page-1" stroke="none" stroke-width="1" fill="none" fill-rule="evenodd">
        <g id="Single-airline" transform="translate(-331.000000, -758.000000)" fill="#363636">
            <g id="Group-10" transform="translate(0.000000, 527.000000)">
                <g id="Group-2" transform="translate(234.000000, 80.000000)">
                    <g id="Frequent-Flights" transform="translate(0.000000, 129.000000)">
                        <g id="1-copy-9" transform="translate(20.000000, 17.000000)">
                            <g id="Rectangle-9" transform="translate(77.000000, 5.000000)">
                                <g id="Group-3" transform="translate(116.000000, 9.000000)">
                                    <path d="M7.42826667,16.76 L14.9152,16.76 L14.9152,10.6064 L7.42826667,10.6064 L7.42826667,16.76 Z M3.04426667,16.76 L6.3616,16.76 L6.3616,10.6064 L3.04426667,10.6064 L3.04426667,16.76 Z M1.4464,6.52373333 L7.95946667,6.52373333 L6.9264,9.53973333 L2.47893333,9.53973333 L1.4464,6.52373333 Z M2.1312,4.32746667 L7.27466667,4.32746667 L6.96373333,5.45706667 L2.44213333,5.45706667 L2.1312,4.32746667 Z M15.4485333,9.53973333 L8.05386667,9.53973333 L9.21013333,6.1632 C9.26613333,6.00053333 9.24,5.82026667 9.14026667,5.68053333 C9.03946667,5.54026667 8.87786667,5.45706667 8.7056,5.45706667 L8.0704,5.45706667 L8.48853333,3.93546667 C8.5328,3.77493333 8.4992,3.6032 8.3984,3.47093333 C8.2976,3.33866667 8.1408,3.2608 7.9744,3.2608 L5.23626667,3.2608 L5.23626667,0.9824 C5.23626667,0.687466667 4.99733333,0.449066667 4.70293333,0.449066667 C4.40853333,0.449066667 4.1696,0.687466667 4.1696,0.9824 L4.1696,3.2608 L1.43146667,3.2608 C1.26506667,3.2608 1.10826667,3.33866667 1.00746667,3.47093333 C0.906666667,3.6032 0.8736,3.77493333 0.917866667,3.93546667 L1.336,5.45706667 L0.699733333,5.45706667 C0.528,5.45706667 0.365866667,5.54026667 0.266133333,5.68053333 C0.165866667,5.82026667 0.139733333,6.00053333 0.195733333,6.1632 L1.5936,10.2458667 C1.65386667,10.4218667 1.80213333,10.5461333 1.9776,10.5872 L1.9776,17.2933333 C1.9776,17.5877333 2.21653333,17.8266667 2.51093333,17.8266667 L15.4485333,17.8266667 C15.7424,17.8266667 15.9818667,17.5877333 15.9818667,17.2933333 L15.9818667,10.0730667 C15.9818667,9.77813333 15.7424,9.53973333 15.4485333,9.53973333 L15.4485333,9.53973333 Z" id="Fill-89-Copy"></path>
                                </g>
                                <rect id="Rectangle-9-Copy" x="9" y="21" width="108" height="1"></rect>
                                <path d="M71,7.125 C71,6.525 70.475,6 69.875,6 L65.75,6 L62,0 L60.5,0 L62.375,6 L58.25,6 L57.125,4.5 L56,4.5 L56.75,7.125 L56,9.75 L57.125,9.75 L58.25,8.25 L62.375,8.25 L60.5,14.25 L62,14.25 L65.75,8.25 L69.875,8.25 C70.475,8.25 71,7.725 71,7.125 Z" id="Path" fill-rule="nonzero"></path>
                                <circle id="Oval-3-Copy" cx="4" cy="21" r="4"></circle>
                            </g>
                        </g>
                    </g>
                </g>
            </g>
        </g>
    </g>
</svg>